# xmcd
#
# Track frame offsets:
#	150
#	14074
#	27599
#	45675
#	59643
#	80571
#	93357
#	108658
#	121032
#	135291
#	150562
#	165941
#	179464
#	199353
#	216922
#	231934
#
# Disc length: 3302 seconds
#
# Revision: 1
# Processed by: cddbd v1.5.2PL0 Copyright (c) Steve Scherf et al.
# Submitted via: audiograbber 1.83.01
#
DISCID=dd0ce410
DTITLE=Jim Nunnally - Gloria's Waltz
DYEAR=2012
DGENRE=Americana/Folk
TTITLE0=Hold Whatcha Got
TTITLE1=Then I'll Stop Going for You
TTITLE2=Revenuer's Gun
TTITLE3=Tennessee Mtn Home
TTITLE4=Pancho and Lefty
TTITLE5=If Teardrops Were Pennies
TTITLE6=Big Train from Memphis
TTITLE7=Your Tone of the Blues
TTITLE8=Old Paint
TTITLE9=Vincent
TTITLE10=Across the Great Divide
TTITLE11=Arms Ful of Empty
TTITLE12=Bluegrass Medley
TTITLE13=What About You
TTITLE14=Dark as the Night
TTITLE15=Gloria's Waltz
EXTD=
EXTT0=
EXTT1=
EXTT2=
EXTT3=
EXTT4=
EXTT5=
EXTT6=
EXTT7=
EXTT8=
EXTT9=
EXTT10=
EXTT11=
EXTT12=
EXTT13=
EXTT14=
EXTT15=
PLAYORDER=
